<svg xmlns="http://www.w3.org/2000/svg" width="14.962" height="14.97" viewBox="0 0 577.688 578">
  <defs>
    <style>
      .cls-1 {
        fill: #131f4f;
        fill-rule: evenodd;
      }
    </style>
  </defs>
  <path id="Forma_1" data-name="Forma 1" class="cls-1" d="M577.778,456.154q1.833,14.082-8.564,24.492l-81.345,80.82A45.805,45.805,0,0,1,473.5,571.875a59.377,59.377,0,0,1-17.43,5.511q-0.612,0-3.672.308t-7.949.305q-11.622,0-37.616-3.979t-63.607-19.593q-37.617-15.614-85.323-46.84T156.37,421.867q-42.813-42.249-70.948-80.822t-45.26-71.332q-17.126-32.757-25.688-59.392T2.854,164.4Q-0.2,145.114.407,134.091t0.611-12.245a59.563,59.563,0,0,1,5.5-17.45,45.883,45.883,0,0,1,10.4-14.389L98.266,8.572Q106.829,0,117.838,0a22.8,22.8,0,0,1,14.068,4.592A42.55,42.55,0,0,1,142.3,15.92l65.443,124.294a29.82,29.82,0,0,1,3.058,21.43,38.162,38.162,0,0,1-10.4,19.593l-29.969,30a10.212,10.212,0,0,0-2.141,3.979,15.113,15.113,0,0,0-.917,4.592q2.447,12.858,11.009,29.39,7.338,14.7,22.63,35.819T244.444,333.7q27.522,28.167,48.93,43.78t35.779,22.961q14.373,7.346,22.019,8.876l7.644,1.531a14.548,14.548,0,0,0,3.977-.918,10.2,10.2,0,0,0,3.975-2.143L401.63,372.27a37.436,37.436,0,0,1,25.688-9.8q10.4,0,16.514,3.673h0.612l118.041,69.8Q575.331,443.91,577.778,456.154Z" transform="translate(-0.313)"/>
</svg>
